<svg preserveAspectRatio="none" width="100%" height="100%" overflow="visible" style="display: block;" viewBox="0 0 55.2547 17.1262" fill="none" xmlns="http://www.w3.org/2000/svg">
<g id=".local">
<path d="M1.30663 17.1262C2.05328 17.1262 2.65993 16.5429 2.65993 15.8196C2.65993 15.0729 2.05328 14.4663 1.30663 14.4663C0.583317 14.4663 0 15.0729 0 15.8196C0 16.5429 0.583317 17.1262 1.30663 17.1262Z" fill="var(--fill-0, black)"/>
<path d="M8.84655 16.7995L9.03321 16.6129V15.8662L8.84655 15.6796H8.42656C7.95991 15.6796 7.63325 15.3529 7.63325 14.8863V1.51662L7.77324 0.163328L7.63325 0H7.07326L4.55334 0.909974L4.36667 1.1433V1.58662L4.6 1.81995H4.94999C5.41664 1.81995 5.76663 2.05328 5.76663 2.61326V14.8863C5.76663 15.3529 5.43998 15.6796 4.97332 15.6796H4.55334L4.36667 15.8662V16.6129L4.55334 16.7995H8.84655Z" fill="var(--fill-0, black)"/>
<path d="M16.4464 17.1262C19.8063 17.1262 22.4896 14.7229 22.4896 11.0364C22.4896 7.34979 19.8063 4.94653 16.4464 4.94653C13.0865 4.94653 10.4033 7.34979 10.4033 11.0364C10.4033 14.7229 13.0865 17.1262 16.4464 17.1262ZM16.4464 15.9596C13.9965 15.9596 12.4099 14.0696 12.4099 11.0364C12.4099 8.00311 13.9965 6.11316 16.4464 6.11316C18.8964 6.11316 20.483 8.00311 20.483 11.0364C20.483 14.0696 18.8964 15.9596 16.4464 15.9596Z" fill="var(--fill-0, black)"/>
<path d="M29.6024 17.1262C32.6123 17.1262 34.0123 15.2596 34.6189 13.393L34.5023 13.1596L34.2456 13.043L34.0123 13.1363C33.2657 14.5829 32.0524 15.6562 30.1857 15.6562C27.8058 15.6562 25.9859 13.8363 25.9859 10.8497C25.9859 8.2131 27.4558 6.1365 30.1157 6.1365C32.1923 6.1365 33.009 7.2798 33.009 8.3531V8.58643L33.1957 8.77309H33.8256L34.0123 8.58643L33.8956 5.9965L33.7323 5.76317C32.8223 5.24985 31.609 4.94653 30.2557 4.94653C27.0825 4.94653 24.0492 7.2098 24.0492 11.1997C24.0492 14.9562 26.7792 17.1262 29.6024 17.1262Z" fill="var(--fill-0, black)"/>
<path d="M48.6043 15.6796C48.1377 15.6796 47.811 15.3529 47.811 14.8863V5.45985L47.6244 5.27319H46.9477L45.9911 6.9998H45.8744C45.1744 5.9965 43.8911 4.94653 41.7679 4.94653C38.8979 4.94653 36.1914 7.2098 36.1914 11.0364C36.1914 15.3062 38.8979 17.1262 41.6512 17.1262C43.1678 17.1262 44.7778 16.6129 45.9444 14.6996V16.6129L46.1311 16.7995H49.0243L49.211 16.6129V15.8662L49.0243 15.6796H48.6043ZM41.9779 16.0296C39.3879 16.0296 38.1513 13.6263 38.1513 11.0364C38.1513 8.4231 39.3879 6.04316 41.9779 6.04316C44.4978 6.04316 45.8044 8.4231 45.8044 11.0364C45.8044 13.6263 44.4978 16.0296 41.9779 16.0296Z" fill="var(--fill-0, black)"/>
<path d="M55.068 16.7995L55.2547 16.6129V15.8662L55.068 15.6796H54.648C54.1814 15.6796 53.8547 15.3529 53.8547 14.8863V1.51662L53.9947 0.163328L53.8547 0H53.2947L50.7748 0.909974L50.5882 1.1433V1.58662L50.8215 1.81995H51.1715C51.6381 1.81995 51.9881 2.05328 51.9881 2.61326V14.8863C51.9881 15.3529 51.6615 15.6796 51.1948 15.6796H50.7748L50.5882 15.8662V16.6129L50.7748 16.7995H55.068Z" fill="var(--fill-0, black)"/>
</g>
</svg>
