<svg preserveAspectRatio="none" width="100%" height="100%" overflow="visible" style="display: block;" viewBox="0 0 123.613 32.3582" fill="none" xmlns="http://www.w3.org/2000/svg">
<g id="Group">
<path id="Vector" d="M9.5821 3.33411C8.32662 1.84453 7.24551 0.331666 7.02464 0.0174561C7.00139 -0.00581869 6.96651 -0.00581869 6.94326 0.0174561C6.72239 0.331666 5.64128 1.84453 4.3858 3.33411C-6.39039 17.0779 6.08304 26.3529 6.08304 26.3529L6.18765 26.4227C6.28065 27.8541 6.51315 29.9139 6.51315 29.9139H6.97814H7.44313C7.44313 29.9139 7.67563 27.8657 7.76863 26.4227L7.87324 26.3412C7.88487 26.3412 20.3583 17.0779 9.5821 3.33411ZM6.97814 26.1434C6.97814 26.1434 6.42015 25.6663 6.26903 25.4219V25.3986L6.94326 10.4329C6.94326 10.3864 7.01302 10.3864 7.01302 10.4329L7.68725 25.3986V25.4219C7.53613 25.6663 6.97814 26.1434 6.97814 26.1434Z" fill="var(--fill-0, black)"/>
<g id="Group_2">
<path id="Vector_2" d="M30.3214 22.9985L25.1236 10.3941L25.112 10.3593H21.0679V11.2065H21.7206C21.9187 11.2065 22.1051 11.2878 22.245 11.4271C22.3849 11.5663 22.4548 11.752 22.4548 11.9493L22.3382 24.635C22.3382 25.0296 22.0119 25.3546 21.6157 25.3662L20.9514 25.3778V26.2134H24.8905V25.3778L24.4826 25.3662C24.0864 25.3546 23.7601 25.0296 23.7601 24.635V12.6805L29.4241 26.2134C29.5056 26.4107 29.6921 26.5384 29.9019 26.5384C30.1117 26.5384 30.2981 26.4107 30.3797 26.2134L35.9155 12.9823L35.9971 24.635C35.9971 25.0412 35.6708 25.3662 35.2629 25.3778H34.8433V26.2134H39.4584V25.3778H38.8291C38.4328 25.3778 38.1065 25.0412 38.0949 24.6466L38.0599 11.961C38.0599 11.5547 38.3862 11.2298 38.7825 11.2182L39.4584 11.2065V10.3593H35.5193L30.3214 22.9985Z" fill="var(--fill-0, black)"/>
<path id="Vector_3" d="M66.5635 25.2528C66.435 25.1241 66.3649 24.9486 66.3649 24.7381V18.4679C66.3649 17.2746 66.0143 16.3388 65.3133 15.672C64.6239 15.0052 63.6657 14.666 62.4739 14.666C60.803 14.666 59.4827 15.3445 58.5596 16.678C58.5479 16.7014 58.5128 16.7131 58.4778 16.7131C58.4427 16.7131 58.4194 16.6897 58.4194 16.6546L57.987 14.9818H57.2626L55.4047 16.0463V16.6312H55.8838C56.1058 16.6312 56.2928 16.6897 56.4213 16.8067C56.5498 16.9237 56.6199 17.0992 56.6199 17.3448V24.7264C56.6199 24.9369 56.5498 25.1124 56.4213 25.2411C56.2928 25.3698 56.1175 25.4399 55.9072 25.4399H55.4398V26.2939H59.7163V25.4399H59.249C59.0386 25.4399 58.8634 25.3698 58.7348 25.2411C58.6063 25.1124 58.5362 24.9369 58.5362 24.7264V19.8599C58.5362 19.2399 58.6764 18.6199 58.9335 18.0116C59.2022 17.415 59.5995 16.912 60.1253 16.526C60.6511 16.1399 61.2821 15.9528 62.0065 15.9528C62.8245 15.9528 63.4437 16.2101 63.8293 16.7248C64.2149 17.2396 64.4136 17.9063 64.4136 18.7018V24.7381C64.4136 24.9486 64.3434 25.1241 64.2149 25.2528C64.0864 25.3815 63.9111 25.4516 63.7008 25.4516H63.2334V26.3056H67.51V25.4516H67.0426C66.8673 25.4516 66.7037 25.3932 66.5635 25.2528Z" fill="var(--fill-0, black)"/>
<path id="Vector_4" d="M105.635 11.3151C104.453 10.6857 103.132 10.3593 101.706 10.3593H96.1435V11.2102H96.6882C96.8968 11.2102 97.0823 11.2918 97.2677 11.4783C97.4415 11.6532 97.5342 11.8513 97.5342 12.0612V24.6037C97.5342 24.8136 97.4415 25.0117 97.2677 25.1866C97.0939 25.3614 96.8968 25.4547 96.6882 25.4547H96.1435V26.3056H101.706C103.132 26.3056 104.453 25.9792 105.635 25.3498C106.817 24.7203 107.779 23.7878 108.475 22.5988C109.17 21.4098 109.529 19.976 109.529 18.3441C109.529 16.7122 109.17 15.2901 108.475 14.0894C107.768 12.8771 106.817 11.9446 105.635 11.3151ZM107.292 18.3208C107.292 19.8128 107.026 21.0718 106.504 22.0859C105.983 23.1 105.287 23.8577 104.43 24.3473C103.572 24.8369 102.622 25.0817 101.602 25.0817H100.478C100.269 25.0817 100.084 25.0001 99.8985 24.8136C99.7246 24.6387 99.6319 24.4405 99.6319 24.2307V12.4109C99.6319 12.201 99.713 12.0145 99.8985 11.828C100.072 11.6532 100.269 11.5599 100.478 11.5599H101.602C102.622 11.5599 103.572 11.8047 104.43 12.2943C105.287 12.7839 105.983 13.5416 106.504 14.5557C107.026 15.5698 107.292 16.8287 107.292 18.3208Z" fill="var(--fill-0, black)"/>
<path id="Vector_5" d="M122.678 19.1717C122.164 18.5772 121.171 18.076 120.003 17.8079C121.615 17.0036 122.445 15.8729 122.445 14.4158C122.445 13.6232 122.235 12.9121 121.814 12.306C121.393 11.6998 120.798 11.2102 120.038 10.8722C119.279 10.5341 118.391 10.3593 117.386 10.3593H111.089V11.2102H111.591C111.802 11.2102 111.989 11.2918 112.176 11.4783C112.351 11.6532 112.444 11.8513 112.444 12.0612V24.6037C112.444 24.8136 112.351 25.0117 112.176 25.1866C112 25.3614 111.802 25.4547 111.591 25.4547H111.042V26.3056H117.877C118.917 26.3056 119.886 26.1308 120.762 25.7811C121.639 25.4314 122.34 24.9185 122.842 24.2424C123.356 23.5663 123.613 22.7387 123.613 21.7828C123.601 20.757 123.298 19.8944 122.678 19.1717ZM114.839 24.8252C114.664 24.6504 114.571 24.4522 114.571 24.2424V18.6122H117.818C118.963 18.6122 119.84 18.9036 120.447 19.4865C121.055 20.0693 121.358 20.827 121.358 21.7595C121.358 22.319 121.218 22.8669 120.961 23.3681C120.692 23.881 120.295 24.289 119.758 24.6037C119.232 24.9185 118.578 25.0817 117.818 25.0817H115.423C115.213 25.0933 115.026 25.0117 114.839 24.8252ZM114.582 17.4116V12.4109C114.582 12.201 114.664 12.0145 114.851 11.828C115.026 11.6532 115.225 11.5599 115.435 11.5599H116.977C118.087 11.5599 118.905 11.8397 119.419 12.3759C119.933 12.9238 120.19 13.6232 120.19 14.4858C120.19 15.3717 119.945 16.0827 119.466 16.6189C118.987 17.1435 118.262 17.4116 117.304 17.4116H114.582V17.4116Z" fill="var(--fill-0, black)"/>
<path id="Vector_6" d="M50.2832 15.4094C49.3905 14.9215 48.3934 14.666 47.3152 14.666C46.237 14.666 45.2283 14.9099 44.3472 15.4094C43.4545 15.8973 42.7473 16.606 42.2255 17.5005C41.7038 18.395 41.4372 19.4405 41.4372 20.6022C41.4372 21.7639 41.7038 22.8094 42.2255 23.7039C42.7473 24.5984 43.4545 25.307 44.3472 25.7949C45.2399 26.2828 46.237 26.5384 47.3152 26.5384C48.3934 26.5384 49.4021 26.2945 50.2832 25.7949C51.1759 25.307 51.8831 24.5984 52.4048 23.7039C52.9266 22.8094 53.1932 21.7639 53.1932 20.6022C53.1932 19.4405 52.9266 18.395 52.4048 17.5005C51.8831 16.5944 51.1759 15.8973 50.2832 15.4094ZM51.1411 20.6022C51.1411 22.0311 50.7933 23.1927 50.0977 24.0292C49.4137 24.8656 48.4746 25.2954 47.3152 25.2954C46.1558 25.2954 45.2167 24.8656 44.5327 24.0292C43.8371 23.1927 43.4893 22.0311 43.4893 20.6022C43.4893 19.1733 43.8371 18.0116 44.5327 17.1752C45.2167 16.3388 46.1558 15.909 47.3152 15.909C48.4746 15.909 49.4137 16.3388 50.0977 17.1752C50.7933 18.0116 51.1411 19.1617 51.1411 20.6022Z" fill="var(--fill-0, black)"/>
<path id="Vector_7" d="M91.3711 15.4094C90.4784 14.9215 89.4814 14.666 88.4031 14.666C87.3249 14.666 86.3163 14.9099 85.4352 15.4094C84.5424 15.8973 83.8352 16.606 83.3135 17.5005C82.7918 18.395 82.5251 19.4405 82.5251 20.6022C82.5251 21.7639 82.7918 22.8094 83.3135 23.7039C83.8352 24.5984 84.5424 25.307 85.4352 25.7949C86.3279 26.2828 87.3249 26.5384 88.4031 26.5384C89.4814 26.5384 90.49 26.2945 91.3711 25.7949C92.2639 25.307 92.9711 24.5984 93.4928 23.7039C94.0145 22.8094 94.2812 21.7639 94.2812 20.6022C94.2812 19.4405 94.0145 18.395 93.4928 17.5005C92.9711 16.5944 92.2523 15.8973 91.3711 15.4094ZM92.2291 20.6022C92.2291 22.0311 91.8813 23.1927 91.1856 24.0292C90.5016 24.8656 89.5625 25.2954 88.4031 25.2954C87.2438 25.2954 86.3047 24.8656 85.6206 24.0292C84.925 23.1927 84.5772 22.0311 84.5772 20.6022C84.5772 19.1617 84.925 18.0116 85.6206 17.1752C86.3047 16.3388 87.2438 15.909 88.4031 15.909C89.5625 15.909 90.5016 16.3388 91.1856 17.1752C91.8697 18.0116 92.2291 19.1617 92.2291 20.6022Z" fill="var(--fill-0, black)"/>
<path id="Vector_8" d="M74.801 14.666C73.8669 14.666 73.0146 14.8644 72.2439 15.2611C71.4733 15.6579 70.8662 16.1948 70.4341 16.8833C70.0021 17.5602 69.7803 18.3188 69.7803 19.124C69.7803 19.8476 69.9437 20.5128 70.2823 21.108C70.6093 21.6798 71.053 22.1583 71.6134 22.5551L69.9437 24.8192C69.7335 25.0993 69.7102 25.4727 69.862 25.7761C70.0255 26.0912 70.329 26.278 70.6793 26.278H71.1581C70.691 26.5931 70.3174 26.9665 70.0605 27.41C69.7569 27.9118 69.6051 28.437 69.6051 28.9738C69.6051 29.9775 70.0488 30.8061 70.9245 31.4246C71.7886 32.0431 73.0029 32.3582 74.5324 32.3582C75.595 32.3582 76.6108 32.1832 77.5332 31.8447C78.4673 31.5063 79.2263 31.0045 79.7867 30.3509C80.3588 29.6974 80.6508 28.9038 80.6508 27.9935C80.6508 27.0365 80.3005 26.3597 79.4831 25.7061C78.7826 25.1576 77.685 24.8659 76.3189 24.8659H71.6484C71.6368 24.8659 71.6251 24.8542 71.6251 24.8542C71.6251 24.8542 71.6134 24.8308 71.6251 24.8192L72.8394 23.1853C73.1663 23.337 73.4699 23.4304 73.7385 23.4888C74.0187 23.5471 74.334 23.5704 74.6842 23.5704C75.665 23.5704 76.5524 23.3721 77.3231 22.9753C78.0937 22.5785 78.7125 22.0416 79.1562 21.3531C79.5999 20.6762 79.8217 19.9176 79.8217 19.1124C79.8217 18.2488 79.4014 16.6733 78.2572 15.868C78.2572 15.8563 78.2688 15.8563 78.2688 15.8563L80.7792 16.1364V14.9811H76.7626C76.1321 14.771 75.4782 14.666 74.801 14.666ZM76.2021 21.9716C75.7584 22.205 75.2797 22.3334 74.801 22.3334C74.0187 22.3334 73.3298 22.0533 72.746 21.5048C72.1622 20.9563 71.8703 20.151 71.8703 19.124C71.8703 18.097 72.1622 17.2918 72.746 16.7433C73.3298 16.1948 74.0187 15.9147 74.801 15.9147C75.2914 15.9147 75.7584 16.0314 76.2021 16.2765C76.6458 16.5099 77.0078 16.8717 77.2997 17.3501C77.5799 17.8286 77.7317 18.4238 77.7317 19.124C77.7317 19.8359 77.5916 20.4311 77.2997 20.8979C77.0195 21.3764 76.6458 21.7265 76.2021 21.9716ZM73.0379 26.2663H76.2021C77.0779 26.2663 77.6383 26.4414 78.0119 26.8148C78.3856 27.1883 78.5724 27.6901 78.5724 28.2736C78.5724 29.1255 78.2338 29.8258 77.5566 30.3509C76.8794 30.8761 75.9686 31.1445 74.8477 31.1445C73.8669 31.1445 73.0496 30.9228 72.4541 30.5026C71.8586 30.0825 71.555 29.4406 71.555 28.6237C71.555 28.1102 71.6952 27.6317 71.9754 27.2116C72.2556 26.7915 72.5942 26.488 73.0379 26.2663Z" fill="var(--fill-0, black)"/>
</g>
</g>
</svg>
