<svg width="216" height="72" viewBox="0 0 216 72" fill="none" xmlns="http://www.w3.org/2000/svg">
<g clip-path="url(#clip0_581_5728)">
<path d="M81.7036 26.3649C81.7036 27.8029 81.8953 29.0493 82.1829 29.9121C82.4706 30.775 82.8541 31.7337 83.4293 32.7883C83.6211 33.0759 83.7168 33.4594 83.7168 33.747C83.7168 34.1305 83.5252 34.514 82.95 34.8975L80.4572 36.5273C80.0737 36.7191 79.786 36.9108 79.4025 36.9108C79.019 36.9108 78.6356 36.719 78.2521 36.3356C77.6769 35.7603 77.1975 35.0892 76.814 34.4181C76.4305 33.747 76.047 32.98 75.5676 32.0213C72.4997 35.6645 68.569 37.486 63.8713 37.486C60.5157 37.486 57.8313 36.5273 55.9138 34.6099C53.9964 32.6924 52.9419 30.1039 52.9419 26.9401C52.9419 23.5846 54.0924 20.8043 56.5851 18.6951C59.0778 16.5859 62.2415 15.6272 66.364 15.6272C67.7062 15.6272 69.1442 15.723 70.5823 15.9148C72.0204 16.1065 73.5544 16.3941 75.1842 16.7776V13.9015C75.1842 10.8336 74.5131 8.72437 73.2668 7.47803C72.0204 6.23169 69.8153 5.65646 66.7474 5.65646C65.3093 5.65646 63.8713 5.8482 62.4332 6.13582C60.9951 6.51931 59.557 6.9028 58.1189 7.47803C57.4478 7.76565 56.9685 7.95739 56.6808 7.95739C56.3932 7.95739 56.2015 8.05326 56.0098 8.05326C55.4346 8.05326 55.147 7.66977 55.147 6.80692V4.88948C55.147 4.21838 55.2427 3.73901 55.4345 3.4514C55.6262 3.16378 56.0099 2.87617 56.5851 2.58855C58.0232 1.91744 59.653 1.24634 61.5704 0.766978C63.4879 0.287617 65.5971 0 67.8021 0C72.4999 0 76.047 1.05459 78.2521 3.25965C80.4571 5.36884 81.6076 8.72437 81.6076 13.0386L81.7036 26.3649ZM65.501 32.4048C66.8433 32.4048 68.1855 32.2131 69.6236 31.7337C71.0617 31.2543 72.3082 30.3915 73.3627 29.1451C74.0339 28.3782 74.5131 27.5153 74.7049 26.5566C74.8966 25.5979 75.0883 24.4474 75.0883 23.1052V21.4754C73.9378 21.1878 72.6916 20.996 71.4453 20.8043C70.199 20.6125 68.9525 20.6125 67.7061 20.6125C65.0217 20.6125 63.1043 21.0919 61.7621 22.2423C60.4199 23.3928 59.8447 24.8309 59.8447 26.8442C59.8447 28.7617 60.324 30.1039 61.2828 31.0626C62.3374 31.9254 63.6795 32.4048 65.501 32.4048ZM97.5225 36.719C96.8514 36.719 96.3719 36.6232 95.9884 36.3356C95.7008 36.1438 95.4133 35.5686 95.1257 34.8016L85.7302 4.02663C85.5384 3.25965 85.3468 2.68442 85.3468 2.3968C85.3468 1.7257 85.6344 1.43808 86.3055 1.43808H90.2361C91.0031 1.43808 91.4825 1.53395 91.7702 1.82157C92.0578 2.01332 92.3454 2.58855 92.5372 3.35553L99.2482 29.7204L105.48 3.35553C105.672 2.58855 105.959 2.01332 106.247 1.82157C106.534 1.62983 107.11 1.43808 107.877 1.43808H111.04C111.807 1.43808 112.287 1.53395 112.67 1.82157C112.958 2.01332 113.245 2.58855 113.437 3.35553L119.765 30.1039L126.668 3.35553C126.859 2.58855 127.147 2.01332 127.435 1.82157C127.722 1.62983 128.298 1.43808 128.969 1.43808H132.708C133.379 1.43808 133.666 1.7257 133.666 2.3968C133.666 2.58855 133.666 2.78029 133.57 3.06791C133.57 3.25965 133.475 3.64314 133.283 4.02663L123.696 34.8016C123.504 35.5686 123.216 36.1438 122.833 36.3356C122.545 36.5273 121.97 36.719 121.299 36.719H117.847C117.08 36.719 116.601 36.6232 116.218 36.3356C115.93 36.0479 115.642 35.5686 115.451 34.7057L109.315 9.01199L103.179 34.7057C102.987 35.4727 102.699 36.0479 102.412 36.3356C102.124 36.6232 101.549 36.719 100.782 36.719H97.5225V36.719ZM148.718 37.7736C146.609 37.7736 144.596 37.5819 142.582 37.1025C140.569 36.6232 139.035 36.1438 137.981 35.4727C137.309 35.0892 136.926 34.7057 136.734 34.3222C136.542 33.9388 136.542 33.5553 136.542 33.1718V31.1585C136.542 30.2956 136.83 29.9121 137.501 29.9121C137.693 29.9121 137.98 29.9121 138.172 30.008C138.364 30.1039 138.747 30.1997 139.131 30.3915C140.473 30.9667 142.007 31.4461 143.541 31.8296C145.171 32.1172 146.705 32.3089 148.239 32.3089C150.731 32.3089 152.745 31.8296 154.087 30.9667C155.429 30.1039 156.196 28.8575 156.196 27.2277C156.196 26.0772 155.813 25.2144 155.142 24.4474C154.47 23.6804 153.032 23.0093 151.115 22.3382L145.363 20.5166C142.486 19.5579 140.281 18.2157 138.939 16.49C137.597 14.7643 136.926 12.751 136.926 10.7377C136.926 9.10786 137.309 7.5739 137.981 6.32756C138.652 5.08123 139.61 3.93076 140.857 3.06791C142.007 2.10919 143.445 1.43808 144.979 0.958722C146.609 0.479361 148.239 0.287617 149.965 0.287617C150.827 0.287617 151.786 0.287617 152.649 0.479361C153.608 0.575233 154.375 0.766977 155.237 0.958722C156.004 1.15047 156.771 1.34221 157.538 1.62983C158.305 1.91744 158.785 2.10919 159.168 2.30093C159.744 2.58855 160.127 2.97204 160.319 3.25965C160.511 3.54727 160.702 4.02663 160.702 4.60187V6.51931C160.702 7.38216 160.415 7.76565 159.743 7.76565C159.456 7.76565 158.881 7.5739 158.21 7.28629C155.909 6.23169 153.416 5.75233 150.54 5.75233C148.239 5.75233 146.513 6.13582 145.267 6.9028C144.021 7.66977 143.349 8.82024 143.349 10.4501C143.349 11.6005 143.733 12.5593 144.5 13.3262C145.267 14.0932 146.801 14.8602 148.91 15.5313L154.566 17.3529C157.443 18.3116 159.552 19.5579 160.702 21.1878C161.853 22.8176 162.524 24.735 162.524 26.7483C162.524 28.474 162.14 30.008 161.469 31.3502C160.798 32.6924 159.839 33.9388 158.593 34.8975C157.347 35.8562 155.909 36.6232 154.183 37.1025C152.649 37.486 150.827 37.7736 148.718 37.7736Z" fill="white"/>
<path d="M48.5314 49.3736C47.2855 48.2232 48.4362 46.7852 49.8742 47.648C66.7476 57.427 87.6477 63.3717 109.219 63.3717C123.791 63.3716 139.706 60.3033 154.47 54.1676C156.579 53.113 158.401 55.6053 156.292 57.1392C143.158 66.8223 124.175 71.9996 107.78 71.9996C84.867 71.9996 64.1585 63.4668 48.5314 49.3736ZM146.129 48.607C153.607 43.3342 165.974 44.8677 167.413 46.5933C168.851 48.4149 167.03 60.6873 160.031 66.6314C158.977 67.5901 157.922 67.1102 158.402 65.8638C159.84 61.9329 163.387 53.0169 161.757 50.9078C160.127 48.7987 150.635 49.8531 146.417 50.4283C145.171 50.62 144.979 49.4698 146.129 48.607Z" fill="#FF9900"/>
</g>
<defs>
<clipPath id="clip0_581_5728">
<rect width="216" height="72" fill="white"/>
</clipPath>
</defs>
</svg>
