<svg width="216" height="72" viewBox="0 0 216 72" fill="none" xmlns="http://www.w3.org/2000/svg">
<g clip-path="url(#clip0_581_5749)">
<path d="M92.4351 37.4181C92.4351 47.6477 84.4325 55.1858 74.6114 55.1858C64.7903 55.1858 56.7876 47.6477 56.7876 37.4181C56.7876 27.1163 64.7903 19.6504 74.6114 19.6504C84.4325 19.6504 92.4351 27.1163 92.4351 37.4181ZM84.6327 37.4181C84.6327 31.0256 79.9945 26.6517 74.6114 26.6517C69.2282 26.6517 64.59 31.0256 64.59 37.4181C64.59 43.7465 69.2282 48.1844 74.6114 48.1844C79.9945 48.1844 84.6327 43.7385 84.6327 37.4181Z" fill="#EA4335"/>
<path d="M130.886 37.4181C130.886 47.6477 122.884 55.1858 113.063 55.1858C103.242 55.1858 95.2389 47.6477 95.2389 37.4181C95.2389 27.1244 103.242 19.6504 113.063 19.6504C122.884 19.6504 130.886 27.1163 130.886 37.4181ZM123.084 37.4181C123.084 31.0256 118.446 26.6517 113.063 26.6517C107.679 26.6517 103.041 31.0256 103.041 37.4181C103.041 43.7465 107.679 48.1844 113.063 48.1844C118.446 48.1844 123.084 43.7385 123.084 37.4181Z" fill="#FBBC05"/>
<path d="M167.735 20.7238V52.6224C167.735 65.7438 159.997 71.103 150.849 71.103C142.237 71.103 137.055 65.3433 135.1 60.633L141.893 57.8053C143.103 60.6971 146.067 64.1097 150.841 64.1097C156.697 64.1097 160.326 60.4969 160.326 53.6958V51.1404H160.053C158.307 53.2952 154.942 55.1778 150.697 55.1778C141.813 55.1778 133.674 47.4394 133.674 37.4822C133.674 27.4528 141.813 19.6504 150.697 19.6504C154.934 19.6504 158.299 21.5329 160.053 23.6237H160.326V20.7318H167.735V20.7238ZM160.878 37.4822C160.878 31.2258 156.705 26.6517 151.394 26.6517C146.011 26.6517 141.501 31.2258 141.501 37.4822C141.501 43.6744 146.011 48.1844 151.394 48.1844C156.705 48.1844 160.878 43.6744 160.878 37.4822Z" fill="#4285F4"/>
<path d="M179.952 2.02686V54.0963H172.342V2.02686H179.952Z" fill="#34A853"/>
<path d="M209.607 43.2656L215.664 47.303C213.709 50.1948 208.999 55.1775 200.86 55.1775C190.766 55.1775 183.228 47.3751 183.228 37.4098C183.228 26.8437 190.83 19.6421 199.987 19.6421C209.207 19.6421 213.717 26.9799 215.191 30.9452L216 32.9639L192.248 42.801C194.067 46.3657 196.895 48.1841 200.86 48.1841C204.833 48.1841 207.589 46.2295 209.607 43.2656ZM190.967 36.8731L206.844 30.2803C205.971 28.0613 203.343 26.5153 200.251 26.5153C196.286 26.5153 190.766 30.0159 190.967 36.8731V36.8731Z" fill="#EA4335"/>
<path d="M27.9813 32.7957V25.2577H53.3832C53.6315 26.5714 53.7597 28.1255 53.7597 29.8077C53.7597 35.4633 52.2136 42.4566 47.231 47.4392C42.3845 52.486 36.1923 55.1776 27.9893 55.1776C12.785 55.1776 0 42.7931 0 27.5888C0 12.3845 12.785 0 27.9893 0C36.4005 0 42.3925 3.3004 46.8945 7.60214L41.5754 12.9212C38.3471 9.89319 33.9733 7.53805 27.9813 7.53805C16.8785 7.53805 8.19493 16.486 8.19493 27.5888C8.19493 38.6916 16.8785 47.6395 27.9813 47.6395C35.1829 47.6395 39.2844 44.7477 41.9119 42.1202C44.0427 39.9893 45.4446 36.9453 45.9973 32.7877L27.9813 32.7957V32.7957Z" fill="#4285F4"/>
</g>
<defs>
<clipPath id="clip0_581_5749">
<rect width="216" height="72" fill="white"/>
</clipPath>
</defs>
</svg>
