<svg width="216" height="47" viewBox="0 0 216 47" fill="none" xmlns="http://www.w3.org/2000/svg">
<g clip-path="url(#clip0_581_5738)">
<path d="M89.8293 9.21341V36.8532H85.0307V15.1636H84.9667L76.3933 36.8532H73.1942L64.4288 15.1636H64.3648V36.8532H59.9501V9.21341H66.8601L74.7937 29.6873H74.9217L83.3032 9.21341H89.8293ZM93.7961 11.3248C93.7961 10.557 94.052 9.9172 94.6279 9.40535C95.2037 8.8935 95.8435 8.63758 96.6113 8.63758C97.443 8.63758 98.1468 8.8935 98.6587 9.40535C99.1705 9.9172 99.4904 10.557 99.4904 11.3248C99.4904 12.0926 99.2345 12.7324 98.6587 13.2442C98.0828 13.7561 97.443 14.012 96.6113 14.012C95.7795 14.012 95.1397 13.7561 94.6279 13.2442C94.116 12.6684 93.7961 12.0286 93.7961 11.3248ZM98.9786 17.0191V36.8532H94.3079V17.0191H98.9786ZM113.118 33.4622C113.822 33.4622 114.59 33.3343 115.422 32.9504C116.253 32.6305 117.021 32.1826 117.725 31.6708V36.0215C116.957 36.4693 116.125 36.7892 115.166 36.9812C114.206 37.1731 113.182 37.3011 112.031 37.3011C109.088 37.3011 106.72 36.4054 104.929 34.5499C103.073 32.6945 102.178 30.3272 102.178 27.512C102.178 24.3129 103.137 21.6897 104.993 19.6423C106.848 17.5949 109.471 16.5712 112.926 16.5712C113.822 16.5712 114.718 16.6992 115.55 16.8911C116.445 17.0831 117.149 17.403 117.661 17.6589V22.1376C116.957 21.6257 116.189 21.1779 115.486 20.9219C114.718 20.666 113.95 20.4741 113.182 20.4741C111.327 20.4741 109.855 21.0499 108.704 22.2655C107.552 23.4812 107.04 25.0807 107.04 27.1281C107.04 29.1115 107.616 30.711 108.704 31.7987C109.791 32.8864 111.263 33.4622 113.118 33.4622ZM130.969 16.6992C131.353 16.6992 131.673 16.6992 131.993 16.7632C132.313 16.8272 132.569 16.8911 132.761 16.9551V21.6897C132.505 21.4978 132.185 21.3058 131.673 21.1779C131.161 21.0499 130.649 20.9219 129.945 20.9219C128.794 20.9219 127.834 21.4338 127.066 22.3935C126.298 23.3532 125.851 24.8248 125.851 26.8722V36.8532H121.18V17.0191H125.851V20.1542H125.915C126.362 19.0665 127.002 18.2347 127.834 17.5949C128.73 17.0191 129.753 16.6992 130.969 16.6992ZM133.016 27.2561C133.016 23.993 133.976 21.3698 135.768 19.4504C137.623 17.5309 140.182 16.5712 143.445 16.5712C146.516 16.5712 148.948 17.467 150.675 19.3224C152.403 21.1779 153.298 23.6731 153.298 26.8082C153.298 30.0072 152.339 32.5665 150.547 34.4859C148.692 36.4054 146.197 37.3651 142.998 37.3651C139.926 37.3651 137.495 36.4693 135.704 34.6779C133.912 32.8224 133.016 30.3272 133.016 27.2561ZM137.879 27.0641C137.879 29.1115 138.327 30.711 139.287 31.7987C140.246 32.8864 141.59 33.4622 143.317 33.4622C144.981 33.4622 146.325 32.9504 147.22 31.7987C148.116 30.711 148.564 29.1115 148.564 26.9362C148.564 24.8248 148.116 23.2253 147.22 22.0736C146.325 20.9859 144.981 20.4101 143.381 20.4101C141.654 20.4101 140.374 20.9859 139.415 22.1376C138.327 23.3532 137.879 24.9527 137.879 27.0641ZM160.272 22.2655C160.272 22.9054 160.464 23.4812 160.912 23.8651C161.36 24.249 162.256 24.6968 163.727 25.2727C165.583 26.0404 166.926 26.8722 167.63 27.7679C168.398 28.7276 168.782 29.8153 168.782 31.1589C168.782 33.0144 168.078 34.4859 166.607 35.6376C165.199 36.7892 163.216 37.3011 160.784 37.3011C159.953 37.3011 159.057 37.1731 158.033 36.9812C157.009 36.7892 156.178 36.5333 155.474 36.2134V31.6068C156.306 32.1826 157.265 32.6945 158.225 33.0144C159.185 33.3343 160.08 33.5262 160.912 33.5262C161.936 33.5262 162.768 33.3982 163.216 33.0783C163.727 32.7584 163.983 32.3106 163.983 31.6068C163.983 30.967 163.727 30.4551 163.216 29.9433C162.704 29.4954 161.68 28.9836 160.272 28.4077C158.545 27.7039 157.329 26.8722 156.625 25.9764C155.922 25.0807 155.538 23.929 155.538 22.5215C155.538 20.73 156.242 19.2584 157.649 18.1068C159.057 16.9551 160.912 16.3793 163.152 16.3793C163.855 16.3793 164.623 16.4433 165.455 16.6352C166.287 16.8272 167.054 17.0191 167.63 17.211V21.7537C166.99 21.3698 166.287 20.9859 165.455 20.666C164.623 20.3461 163.791 20.2181 163.024 20.2181C162.128 20.2181 161.424 20.4101 160.976 20.73C160.528 21.1779 160.272 21.6257 160.272 22.2655ZM170.765 27.2561C170.765 23.993 171.725 21.3698 173.516 19.4504C175.372 17.5309 177.931 16.5712 181.194 16.5712C184.265 16.5712 186.697 17.467 188.424 19.3224C190.152 21.1779 191.047 23.6731 191.047 26.8082C191.047 30.0072 190.088 32.5665 188.296 34.4859C186.441 36.4054 183.945 37.3651 180.746 37.3651C177.675 37.3651 175.244 36.4693 173.453 34.6779C171.725 32.8224 170.765 30.3272 170.765 27.2561ZM175.628 27.0641C175.628 29.1115 176.076 30.711 177.035 31.7987C177.995 32.8864 179.339 33.4622 181.066 33.4622C182.73 33.4622 184.073 32.9504 184.969 31.7987C185.865 30.711 186.313 29.1115 186.313 26.9362C186.313 24.8248 185.865 23.2253 184.969 22.0736C184.073 20.9859 182.73 20.4101 181.13 20.4101C179.403 20.4101 178.123 20.9859 177.163 22.1376C176.14 23.3532 175.628 24.9527 175.628 27.0641ZM206.595 20.858H199.621V36.8532H194.886V20.858H191.559V17.0191H194.886V14.2679C194.886 12.2205 195.59 10.493 196.934 9.14943C198.277 7.80583 200.005 7.16602 202.116 7.16602C202.692 7.16602 203.204 7.23 203.652 7.23C204.099 7.23 204.483 7.35796 204.803 7.48592V11.5167C204.675 11.4527 204.355 11.3248 203.971 11.1968C203.588 11.0689 203.14 11.0049 202.628 11.0049C201.668 11.0049 200.9 11.3248 200.389 11.9006C199.877 12.4764 199.621 13.4362 199.621 14.5878V16.9551H206.595V12.4764L211.265 11.0689V16.9551H216V20.794H211.265V30.0712C211.265 31.2869 211.521 32.1186 211.905 32.6305C212.353 33.1423 213.057 33.3982 214.016 33.3982C214.272 33.3982 214.592 33.3343 214.976 33.2063C215.36 33.0783 215.68 32.9504 215.936 32.7584V36.5973C215.616 36.7892 215.168 36.9172 214.464 37.0452C213.761 37.1731 213.121 37.2371 212.417 37.2371C210.434 37.2371 208.962 36.7253 208.002 35.7016C207.043 34.6779 206.531 33.0783 206.531 30.967L206.595 20.858Z" fill="white"/>
<path d="M21.8815 0H0V21.8815H21.8815V0Z" fill="#F25022"/>
<path d="M46.0661 0H24.1846V21.8815H46.0661V0Z" fill="#7FBA00"/>
<path d="M21.8815 24.1846H-6.10352e-05V46.0661H21.8815V24.1846Z" fill="#00A4EF"/>
<path d="M46.0661 24.1846H24.1846V46.0661H46.0661V24.1846Z" fill="#FFB900"/>
</g>
<defs>
<clipPath id="clip0_581_5738">
<rect width="216" height="46.0663" fill="white"/>
</clipPath>
</defs>
</svg>
